<?xml version="1.0" encoding="utf-8"?>
<!-- Generator: Adobe Illustrator 16.0.0, SVG Export Plug-In . SVG Version: 6.00 Build 0)  -->
<!DOCTYPE svg PUBLIC "-//W3C//DTD SVG 1.1//EN" "http://www.w3.org/Graphics/SVG/1.1/DTD/svg11.dtd">
<svg version="1.1" id="Ebene_1" xmlns="http://www.w3.org/2000/svg" xmlns:xlink="http://www.w3.org/1999/xlink" x="0px" y="0px"
	 width="259.499px" height="64px" viewBox="-3 1 259.499 64" enable-background="new -3 1 259.499 64" xml:space="preserve">
<path fill="#FBB03B" d="M38.6,20.753c0.964-0.088,0.976-0.797,1.052-1.527c0.381-3.64,2.075-6.48,5.216-8.41
	c1.564-0.96,2.398-2.253,2.11-4.169c-0.102-0.685-0.121-1.49,0.783-1.727c0.952-0.249,1.681,0.112,2.251,0.94
	c1.901,2.756,1.514,6.136-1.168,8.243c-2.063,1.618-3.553,3.637-4.786,5.886c-0.385,0.701-1.27,1.456-0.227,2.295
	c0.885,0.713,2.073,1.167,2.87,0.25c2.283-2.627,5.554-3.26,8.499-4.548c2.055-0.898,3.67-2.271,4.829-4.35
	c1.423,3.701,0.548,6.828-2.416,9.064c-2.156,1.627-4.665,2.395-7.271,2.938c-0.927,0.192-1.931,0.221-2.674,0.984
	c-0.559,0.577-0.64,1.235-0.417,1.945c0.202,0.643,0.783,0.672,1.301,0.583c4.044-0.704,8.058-0.114,12.083,0.216
	c1.876,0.154,3.203-1.205,4.671-2.188c0.743,3.029-0.477,5.401-3.507,6.746c-4.208,1.865-8.435,1.039-12.652-0.059
	c-0.682-0.178-1.394-0.917-2.117,0.035c-0.997,1.316-0.585,2.713,1.048,3.029c3.064,0.59,5.435,2.387,7.779,4.258
	c1.482,1.182,2.972,2.229,5.028,1.313c0.643-0.287,1.449-0.393,1.857,0.406c0.438,0.857,0.282,1.684-0.424,2.406
	c-2.196,2.254-7.206,2.484-9.405,0.287c-1.104-1.104-2.352-1.785-3.791-2.266c-1.249-0.416-2.447-0.92-3.402-1.926
	c-0.494-0.521-0.367-2.125-1.701-1.346c-1.102,0.643-1.768,1.75-1.457,3.127c0.131,0.58,0.407,1.193,0.794,1.637
	c1.366,1.564,2.111,3.416,2.755,5.348c0.662,1.98,1.71,3.672,3.863,4.359c0.59,0.189,1.258,0.367,1.151,1.186
	c-0.101,0.76-0.625,1.195-1.309,1.518c-2.515,1.176-6.922-0.455-7.722-3.168c-0.919-3.123-3.655-5.15-4.549-8.275
	c-0.369-1.293-1.611-0.582-2.512-0.363c-0.997,0.24-2.104,0.654-1.691,1.869c1.05,3.088,0.002,5.898-0.854,8.748
	c-0.496,1.652-0.073,2.902,1.302,3.926c0.832,0.619,1.406,1.424,0.575,2.455c-0.705,0.873-1.628,0.928-2.627,0.563
	c-2.971-1.09-4.852-4.229-4.104-7.393c0.661-2.795,0.069-5.615,0.523-8.4c0.198-1.211-0.779-1.656-1.778-1.898
	c-1.029-0.252-1.486,0.375-1.634,1.238c-0.55,3.209-2.835,5.162-5.104,7.127c-1.573,1.361-2.92,2.807-2.637,5.141
	c0.103,0.844-0.17,1.598-1.174,1.76c-0.944,0.15-1.493-0.398-1.845-1.168c-1.275-2.787-1.803-6.41,1.153-8.631
	c2.421-1.822,3.306-4.965,5.55-6.996c0.615-0.559,0.294-1.123-0.214-1.568c-0.647-0.568-1.495-1.549-2.24-0.703
	c-3.038,3.447-7.387,4.229-11.312,5.887C6.366,47.62,5.919,48.101,5.38,48.39c-0.729,0.389-1.22,1.721-2.072,1.201
	c-0.838-0.512-0.509-1.748-0.393-2.705c0.292-2.408,1.486-4.373,3.844-4.838c3.609-0.709,5.875-3.854,9.364-4.691
	c0.926-0.225,0.831-1.229,0.629-2.037c-0.156-0.625-0.541-0.863-1.172-0.625c-3.358,1.266-6.774,0.564-10.183,0.328
	c-2.091-0.146-4.18,0.016-6.562,0.48c1.176-3.462,3.661-4.899,6.633-5.686c2.602-0.688,5.368-0.794,7.817,0.122
	c2.978,1.114,4.367,0.33,4.868-2.834c-3.12-0.146-5.692-1.821-8.315-3.396c-1.68-1.009-3.475-1.687-5.488-1.604
	c-0.612,0.025-1.31,0.068-1.557-0.665c-0.246-0.74,0.111-1.376,0.588-1.93c1.463-1.701,4.79-2.527,6.792-1.371
	c3.2,1.849,6.913,2.669,9.858,4.986c1.238,0.973,1.686-0.2,2.322-0.791c0.644-0.598,0.94-1.252,0.047-1.959
	c-2.033-1.611-2.958-3.866-3.59-6.291c-0.444-1.701-1.2-3.116-3.187-3.422c-0.879-0.136-1.421-0.673-1.349-1.642
	c0.075-0.998,0.778-1.232,1.622-1.395c3.732-0.721,6.256,0.63,7.832,4.134c0.9,2.001,1.959,3.93,2.865,5.929
	c0.571,1.261,1.4,1.316,2.569,0.944c1.232-0.392,1.812-1.034,1.328-2.325c-0.604-1.611-0.05-3.15,0.369-4.65
	c0.685-2.447,1.162-4.802-0.691-6.98c-0.347-0.408-0.551-0.924-0.125-1.438c0.575-0.692,1.331-0.753,2.155-0.618
	c3.397,0.562,5.56,4.011,4.444,7.63c-1.18,3.825-0.798,7.267,1.554,10.494c-0.819,1.203-2.078,1.132-3.311,1.147
	c-4.003,0.049-7.342,1.517-9.877,4.663c-2.648,3.286-2.612,7.16,0.073,10.031c2.982,3.191,7.795,3.684,11.802,1.207
	c3.808-2.354,5.107-6.384,3.384-10.724C39.454,25.024,38.659,22.99,38.6,20.753z"/>
<polygon fill="#2E3192" points="228.877,38.575 221.066,19.087 225.199,17.431 231.641,33.507 239.547,30.338 240.914,33.751 "/>
<g opacity="0.5">
	<path fill="#C1272D" d="M69.361,35.368l6.462-0.967c2.945-0.439,5.145-0.34,6.601,0.299c1.456,0.641,2.32,1.873,2.594,3.699
		c0.185,1.242,0.046,2.303-0.418,3.186c-0.463,0.881-1.167,1.475-2.108,1.781l0.021,0.141c1.36,0.098,2.392,0.506,3.094,1.223
		c0.702,0.721,1.153,1.744,1.353,3.08c0.283,1.895-0.181,3.475-1.39,4.738c-1.209,1.266-2.989,2.074-5.337,2.426l-7.769,1.158
		L69.361,35.368L69.361,35.368z M74.993,42.933l2.557-0.381c1.193-0.18,2.029-0.494,2.509-0.941c0.479-0.449,0.657-1.1,0.529-1.953
		c-0.119-0.797-0.495-1.322-1.129-1.58c-0.634-0.26-1.582-0.295-2.841-0.105l-2.314,0.346L74.993,42.933z M75.515,46.427
		l0.809,5.412l2.869-0.43c1.211-0.182,2.072-0.545,2.581-1.096c0.508-0.551,0.69-1.305,0.547-2.262
		c-0.258-1.723-1.618-2.4-4.079-2.033L75.515,46.427z"/>
	<path fill="#C1272D" d="M121.022,36.993l6.419,1.219c2.926,0.555,4.97,1.375,6.134,2.457c1.163,1.084,1.573,2.533,1.229,4.348
		c-0.234,1.232-0.715,2.188-1.443,2.869c-0.728,0.682-1.587,1.01-2.577,0.988l-0.027,0.141c1.253,0.539,2.091,1.264,2.518,2.174
		c0.426,0.91,0.515,2.025,0.263,3.354c-0.357,1.881-1.315,3.219-2.874,4.016c-1.56,0.793-3.506,0.971-5.838,0.529l-7.718-1.463
		L121.022,36.993L121.022,36.993z M123.846,45.993l2.54,0.482c1.185,0.225,2.078,0.203,2.679-0.063s0.982-0.82,1.143-1.67
		c0.15-0.789-0.032-1.41-0.545-1.863c-0.514-0.453-1.396-0.799-2.646-1.035l-2.3-0.438L123.846,45.993z M123.188,49.464
		l-1.021,5.375l2.85,0.541c1.204,0.229,2.136,0.168,2.797-0.184c0.662-0.354,1.082-1.004,1.263-1.955
		c0.325-1.711-0.736-2.801-3.182-3.264L123.188,49.464z"/>
	<path fill="#C1272D" d="M182.464,47.011c0.441,1.844,0.126,3.455-0.947,4.834c-1.073,1.381-2.791,2.354-5.157,2.918
		c-2.178,0.523-4.203,0.574-6.075,0.156l-0.963-4.021c1.525,0.285,2.795,0.438,3.81,0.461c1.014,0.021,1.917-0.061,2.708-0.25
		c0.951-0.227,1.635-0.584,2.055-1.068s0.545-1.084,0.373-1.801c-0.096-0.402-0.294-0.73-0.591-0.988
		c-0.298-0.26-0.699-0.482-1.201-0.668c-0.501-0.184-1.496-0.432-2.977-0.748c-1.389-0.287-2.459-0.625-3.213-1.018
		c-0.754-0.391-1.401-0.9-1.946-1.527c-0.544-0.627-0.93-1.42-1.161-2.379c-0.433-1.807-0.159-3.373,0.817-4.701
		c0.977-1.326,2.546-2.248,4.707-2.766c1.061-0.252,2.104-0.37,3.127-0.351c1.024,0.023,2.117,0.136,3.278,0.339l-0.591,3.701
		c-1.196-0.188-2.171-0.283-2.926-0.291c-0.754-0.006-1.476,0.074-2.166,0.238c-0.82,0.197-1.402,0.537-1.749,1.023
		c-0.346,0.488-0.447,1.039-0.299,1.654c0.091,0.381,0.259,0.693,0.504,0.934c0.245,0.24,0.591,0.449,1.042,0.621
		c0.45,0.172,1.479,0.432,3.088,0.775c2.126,0.455,3.655,1.057,4.581,1.803C181.523,44.64,182.146,45.681,182.464,47.011z"/>
	<path fill="#C1272D" d="M227.682,34.241v13.584c0,1.553-0.346,2.912-1.041,4.08c-0.693,1.166-1.697,2.061-3.008,2.686
		c-1.313,0.623-2.863,0.934-4.652,0.934c-2.701,0-4.799-0.693-6.291-2.076c-1.494-1.385-2.24-3.275-2.24-5.68V34.241h4.438v12.852
		c0,1.619,0.326,2.805,0.977,3.563c0.65,0.756,1.729,1.135,3.232,1.135c1.453,0,2.51-0.381,3.166-1.143s0.984-1.957,0.984-3.584
		V34.241H227.682z"/>
	<path fill="#2E3192" d="M101.265,50.317l-0.637-5.186l-7.54-1.322l-2.362,4.66l-4.724-0.826L96.94,28.157l5.361,0.938l3.688,22.05
		L101.265,50.317z M100.226,41.271c-0.604-4.703-0.942-7.363-1.014-7.977c-0.073-0.616-0.116-1.1-0.132-1.453
		c-0.524,1.153-1.938,3.98-4.243,8.484L100.226,41.271z"/>
	<path fill="#2E3192" d="M142.116,53.987l-1.522-4.996h-7.654l-1.523,4.996h-4.796l7.41-21.081h5.443l7.438,21.081H142.116z
		 M139.53,45.257c-1.407-4.529-2.2-7.09-2.376-7.684c-0.177-0.594-0.304-1.063-0.381-1.406c-0.315,1.227-1.22,4.254-2.714,9.09
		H139.53z"/>
	<path fill="#2E3192" d="M164.18,56.767l-0.92-5.145l-7.601-0.904l-2.103,4.781l-4.763-0.568l9.854-20.055l5.404,0.643l4.89,21.814
		L164.18,56.767z M162.646,47.79c-0.861-4.664-1.345-7.301-1.449-7.91c-0.106-0.611-0.176-1.092-0.213-1.443
		c-0.458,1.18-1.715,4.082-3.771,8.705L162.646,47.79z"/>
	<path fill="#2E3192" d="M192.238,32.015c-1.647,0.311-2.805,1.169-3.474,2.578s-0.796,3.217-0.378,5.428
		c0.868,4.6,3.029,6.574,6.482,5.924c1.447-0.275,3.135-0.967,5.059-2.082l0.691,3.67c-1.561,1.025-3.385,1.736-5.473,2.131
		c-3.001,0.566-5.468,0.088-7.401-1.432c-1.935-1.521-3.223-3.982-3.865-7.389c-0.405-2.146-0.369-4.098,0.107-5.859
		c0.476-1.76,1.365-3.209,2.665-4.347c1.3-1.136,2.934-1.891,4.899-2.262c2.004-0.378,4.108-0.274,6.315,0.313l-0.74,3.822
		c-0.842-0.221-1.676-0.395-2.512-0.519C193.783,31.865,192.991,31.873,192.238,32.015z"/>
	<path fill="#009245" d="M107.039,48.915l1.478,7.918l-4.376,0.816l-3.851-20.639l6.014-1.123c2.805-0.521,4.975-0.398,6.512,0.371
		c1.537,0.77,2.498,2.197,2.887,4.275c0.227,1.215,0.094,2.355-0.398,3.426c-0.492,1.07-1.299,1.988-2.423,2.752
		c3.972,4.061,6.554,6.682,7.749,7.861l-4.857,0.906l-6.404-7L107.039,48.915z M106.375,45.356l1.412-0.264
		c1.383-0.258,2.361-0.678,2.935-1.264c0.572-0.582,0.767-1.369,0.582-2.359c-0.183-0.977-0.649-1.611-1.399-1.9
		c-0.75-0.287-1.831-0.301-3.243-0.037l-1.328,0.246L106.375,45.356L106.375,45.356z"/>
	<path fill="#009245" d="M148.906,54.401l4.615,6.604l-3.649,2.551l-12.027-17.211l5.015-3.504c2.339-1.635,4.367-2.418,6.083-2.352
		c1.718,0.066,3.183,0.969,4.395,2.703c0.708,1.012,1.059,2.107,1.053,3.285c-0.007,1.176-0.364,2.348-1.071,3.508
		c5.294,2.059,8.728,3.379,10.302,3.961l-4.049,2.828l-8.722-3.732L148.906,54.401z M146.833,51.435l1.178-0.824
		c1.153-0.805,1.869-1.592,2.15-2.361c0.28-0.768,0.133-1.564-0.443-2.389c-0.57-0.816-1.256-1.201-2.058-1.154
		c-0.803,0.049-1.793,0.48-2.97,1.305l-1.107,0.771L146.833,51.435L146.833,51.435z"/>
	<polygon fill="#009245" points="206.473,55.097 202.033,55.097 202.033,46.034 193.719,46.034 193.719,55.097 189.267,55.097 
		189.267,34.101 193.719,34.101 193.719,42.331 202.033,42.331 202.033,34.101 206.473,34.101 	"/>
	<polygon fill="#009245" points="248.316,56.243 236.551,53.446 241.408,33.021 253.172,35.817 252.328,39.366 244.896,37.599 
		243.828,42.083 250.744,43.728 249.9,47.276 242.986,45.634 241.732,50.899 249.166,52.667 	"/>
	<g>
		<defs>
			<rect id="SVGID_1_" x="193.695" y="39.255" width="7.693" height="12.893"/>
		</defs>
		<clipPath id="SVGID_2_">
			<use xlink:href="#SVGID_1_"  overflow="visible"/>
		</clipPath>
		<path clip-path="url(#SVGID_2_)" fill="#2E3192" d="M192.238,31.946c-1.647,0.312-2.805,1.171-3.474,2.579
			c-0.669,1.408-0.796,3.217-0.378,5.426c0.868,4.602,3.029,6.576,6.482,5.924c1.447-0.273,3.135-0.967,5.059-2.08l0.691,3.67
			c-1.561,1.025-3.385,1.734-5.473,2.129c-3.001,0.566-5.468,0.09-7.401-1.432c-1.935-1.52-3.223-3.982-3.865-7.387
			c-0.405-2.146-0.369-4.1,0.107-5.861c0.476-1.759,1.365-3.208,2.665-4.345c1.3-1.137,2.934-1.892,4.899-2.263
			c2.004-0.379,4.108-0.272,6.315,0.313l-0.74,3.823c-0.842-0.222-1.676-0.395-2.512-0.521
			C193.783,31.795,192.991,31.804,192.238,31.946z"/>
	</g>
</g>
<g>
	<path fill="#FBB03B" d="M93.187,36.653h-3.333v5.738h-5.719v-5.738H72.318v-4.071l12.139-17.877h5.397v17.403h3.333V36.653z
		 M84.135,32.108v-4.696c0-0.783,0.031-1.919,0.094-3.409c0.063-1.489,0.114-2.354,0.152-2.595h-0.152
		c-0.467,1.036-1.029,2.045-1.685,3.03l-5.075,7.669H84.135z"/>
	<path fill="#FBB03B" d="M114.548,28.548c0,4.835-0.793,8.416-2.377,10.738c-1.584,2.322-4.024,3.484-7.319,3.484
		c-3.194,0-5.603-1.199-7.225-3.598c-1.623-2.398-2.434-5.94-2.434-10.625c0-4.886,0.789-8.487,2.367-10.804
		c1.578-2.316,4.008-3.475,7.291-3.475c3.193,0,5.608,1.212,7.243,3.636C113.73,20.33,114.548,23.877,114.548,28.548z
		 M101.008,28.548c0,3.396,0.293,5.83,0.88,7.3s1.574,2.207,2.964,2.207c1.363,0,2.348-0.746,2.954-2.234
		c0.606-1.49,0.909-3.915,0.909-7.273c0-3.396-0.306-5.835-0.918-7.319c-0.613-1.483-1.594-2.225-2.944-2.225
		c-1.376,0-2.361,0.742-2.955,2.225C101.304,22.713,101.008,25.152,101.008,28.548z"/>
	<path fill="#FBB03B" d="M137.462,36.653h-3.333v5.738h-5.719v-5.738h-11.817v-4.071l12.139-17.877h5.397v17.403h3.333V36.653z
		 M128.41,32.108v-4.696c0-0.783,0.031-1.919,0.095-3.409c0.063-1.489,0.114-2.354,0.151-2.595h-0.151
		c-0.467,1.036-1.029,2.045-1.686,3.03l-5.075,7.669H128.41z"/>
	<path fill="#FBB03B" d="M167.572,42.392h-15.945V14.705h15.945v4.81h-10.075v6.079h9.374v4.81h-9.374v7.14h10.075V42.392z"/>
	<path fill="#FBB03B" d="M184.71,20.822c0.783,0,1.433,0.057,1.951,0.17l-0.436,5.416c-0.467-0.125-1.036-0.189-1.705-0.189
		c-1.844,0-3.279,0.474-4.308,1.42c-1.029,0.947-1.543,2.272-1.543,3.977v10.775h-5.776V21.22h4.375l0.852,3.56h0.284
		c0.656-1.186,1.543-2.143,2.661-2.869C182.183,21.185,183.397,20.822,184.71,20.822z"/>
	<path fill="#FBB03B" d="M202.322,20.822c0.782,0,1.433,0.057,1.95,0.17l-0.436,5.416c-0.467-0.125-1.035-0.189-1.704-0.189
		c-1.844,0-3.279,0.474-4.309,1.42s-1.543,2.272-1.543,3.977v10.775h-5.776V21.22h4.375l0.853,3.56h0.283
		c0.656-1.186,1.544-2.143,2.661-2.869C199.794,21.185,201.009,20.822,202.322,20.822z"/>
	<path fill="#FBB03B" d="M227.357,31.768c0,3.446-0.909,6.144-2.728,8.087c-1.817,1.943-4.349,2.916-7.594,2.916
		c-2.033,0-3.825-0.445-5.378-1.336c-1.553-0.889-2.746-2.168-3.579-3.834s-1.25-3.609-1.25-5.833c0-3.458,0.902-6.148,2.708-8.067
		c1.805-1.918,4.343-2.878,7.613-2.878c2.032,0,3.825,0.442,5.378,1.326c1.553,0.884,2.746,2.153,3.579,3.806
		C226.94,27.608,227.357,29.546,227.357,31.768z M212.719,31.768c0,2.097,0.344,3.681,1.032,4.753
		c0.688,1.074,1.809,1.609,3.361,1.609c1.54,0,2.647-0.531,3.324-1.6c0.675-1.066,1.012-2.654,1.012-4.763
		c0-2.095-0.341-3.667-1.022-4.715c-0.682-1.048-1.799-1.572-3.352-1.572c-1.541,0-2.651,0.521-3.333,1.562
		S212.719,29.66,212.719,31.768z"/>
	<path fill="#FBB03B" d="M243.946,20.822c0.783,0,1.433,0.057,1.95,0.17l-0.436,5.416c-0.467-0.125-1.034-0.189-1.704-0.189
		c-1.844,0-3.279,0.474-4.308,1.42c-1.029,0.947-1.544,2.272-1.544,3.977v10.775h-5.776V21.22h4.375l0.852,3.56h0.284
		c0.656-1.186,1.545-2.143,2.66-2.869C241.419,21.185,242.633,20.822,243.946,20.822z"/>
</g>
</svg>
