<?xml version="1.0" encoding="utf-8"?>
<!-- Generator: Adobe Illustrator 16.0.0, SVG Export Plug-In . SVG Version: 6.00 Build 0)  -->
<!DOCTYPE svg PUBLIC "-//W3C//DTD SVG 1.1//EN" "http://www.w3.org/Graphics/SVG/1.1/DTD/svg11.dtd">
<svg version="1.1" id="Ebene_1" xmlns="http://www.w3.org/2000/svg" xmlns:xlink="http://www.w3.org/1999/xlink" x="0px" y="0px"
	 width="392px" height="64px" viewBox="0 0 392 64" enable-background="new 0 0 392 64" xml:space="preserve">
<path fill-rule="evenodd" clip-rule="evenodd" fill="#FBB03B" d="M41.6,19.753c0.964-0.088,0.976-0.797,1.052-1.527
	c0.381-3.64,2.075-6.48,5.216-8.41c1.564-0.96,2.398-2.253,2.11-4.169c-0.102-0.685-0.121-1.49,0.783-1.727
	c0.952-0.249,1.681,0.112,2.251,0.94c1.901,2.756,1.514,6.136-1.168,8.243c-2.063,1.618-3.553,3.637-4.786,5.886
	c-0.385,0.701-1.27,1.456-0.227,2.295c0.885,0.713,2.073,1.167,2.87,0.25c2.283-2.627,5.554-3.26,8.499-4.548
	c2.055-0.898,3.67-2.271,4.829-4.35c1.423,3.701,0.548,6.828-2.416,9.064c-2.156,1.627-4.665,2.395-7.271,2.938
	c-0.927,0.192-1.931,0.221-2.674,0.984c-0.559,0.577-0.64,1.235-0.417,1.945c0.202,0.643,0.783,0.672,1.301,0.583
	c4.044-0.704,8.058-0.114,12.083,0.216c1.876,0.154,3.203-1.205,4.671-2.188c0.743,3.029-0.477,5.402-3.507,6.747
	c-4.208,1.865-8.435,1.039-12.652-0.059c-0.682-0.178-1.394-0.917-2.117,0.035c-0.997,1.316-0.585,2.712,1.048,3.028
	c3.064,0.59,5.435,2.388,7.779,4.258c1.482,1.182,2.972,2.229,5.028,1.313c0.643-0.286,1.449-0.393,1.857,0.406
	c0.438,0.857,0.282,1.684-0.424,2.407c-2.196,2.253-7.206,2.484-9.405,0.287c-1.104-1.104-2.352-1.785-3.791-2.265
	c-1.249-0.417-2.447-0.92-3.402-1.927c-0.494-0.521-0.367-2.124-1.701-1.345c-1.102,0.643-1.768,1.75-1.457,3.126
	c0.131,0.58,0.407,1.194,0.794,1.638c1.366,1.564,2.111,3.415,2.755,5.347c0.662,1.98,1.71,3.672,3.863,4.36
	c0.59,0.188,1.258,0.366,1.151,1.185c-0.101,0.759-0.625,1.195-1.309,1.517c-2.515,1.176-6.922-0.454-7.722-3.168
	c-0.919-3.123-3.655-5.149-4.549-8.275c-0.369-1.292-1.611-0.581-2.512-0.364c-0.997,0.241-2.104,0.655-1.691,1.87
	c1.05,3.088,0.002,5.898-0.854,8.749c-0.496,1.651-0.073,2.901,1.302,3.925c0.832,0.62,1.406,1.424,0.575,2.454
	c-0.705,0.874-1.628,0.929-2.627,0.563c-2.971-1.089-4.852-4.229-4.104-7.392c0.661-2.795,0.069-5.615,0.523-8.4
	c0.198-1.212-0.779-1.656-1.778-1.899c-1.029-0.251-1.486,0.375-1.634,1.238c-0.55,3.21-2.835,5.162-5.104,7.128
	c-1.573,1.361-2.92,2.806-2.637,5.14c0.103,0.844-0.17,1.598-1.174,1.759c-0.944,0.152-1.493-0.397-1.845-1.167
	c-1.275-2.787-1.803-6.41,1.153-8.632c2.421-1.821,3.306-4.964,5.55-6.996c0.615-0.558,0.294-1.122-0.214-1.568
	c-0.647-0.567-1.495-1.548-2.24-0.703c-3.038,3.448-7.387,4.228-11.312,5.887c-0.556,0.235-1.003,0.714-1.542,1.003
	c-0.729,0.39-1.22,1.722-2.072,1.202c-0.838-0.512-0.509-1.748-0.393-2.705c0.292-2.408,1.486-4.373,3.844-4.838
	c3.609-0.709,5.875-3.854,9.364-4.692c0.926-0.223,0.831-1.228,0.629-2.036c-0.156-0.626-0.541-0.863-1.172-0.625
	c-3.358,1.266-6.774,0.565-10.183,0.327c-2.091-0.145-4.18,0.016-6.562,0.481c1.176-3.462,3.661-4.899,6.633-5.685
	c2.602-0.688,5.368-0.794,7.817,0.122c2.978,1.114,4.367,0.33,4.868-2.834c-3.12-0.146-5.692-1.821-8.315-3.396
	c-1.68-1.009-3.475-1.687-5.488-1.604c-0.612,0.025-1.31,0.068-1.557-0.665C5.547,19.7,5.904,19.064,6.381,18.51
	c1.463-1.701,4.79-2.527,6.792-1.371c3.2,1.849,6.913,2.669,9.858,4.986c1.238,0.973,1.686-0.2,2.322-0.791
	c0.644-0.598,0.94-1.252,0.047-1.959c-2.033-1.611-2.958-3.866-3.59-6.291c-0.444-1.701-1.2-3.116-3.187-3.422
	c-0.879-0.136-1.421-0.673-1.349-1.642c0.075-0.998,0.778-1.232,1.622-1.395c3.732-0.721,6.256,0.63,7.832,4.134
	c0.9,2.001,1.959,3.93,2.865,5.929c0.571,1.261,1.4,1.316,2.569,0.944c1.232-0.392,1.812-1.034,1.328-2.325
	c-0.604-1.611-0.05-3.15,0.369-4.65c0.685-2.447,1.162-4.802-0.691-6.98c-0.347-0.408-0.551-0.924-0.125-1.438
	c0.575-0.692,1.331-0.753,2.155-0.618c3.397,0.562,5.56,4.011,4.444,7.63c-1.18,3.825-0.798,7.267,1.554,10.494
	c-0.819,1.203-2.078,1.132-3.311,1.147c-4.003,0.049-7.342,1.517-9.877,4.663c-2.648,3.286-2.612,7.16,0.073,10.032
	c2.982,3.19,7.795,3.682,11.802,1.206c3.808-2.354,5.107-6.384,3.384-10.723C42.454,24.024,41.659,21.99,41.6,19.753z"/>
<path fill="#C1272D" d="M79.872,17.472h7.855c3.58,0,6.178,0.509,7.795,1.528s2.426,2.639,2.426,4.86
	c0,1.508-0.354,2.745-1.062,3.712c-0.708,0.967-1.649,1.548-2.823,1.744v0.172c1.6,0.357,2.753,1.025,3.461,2.003
	c0.708,0.979,1.062,2.279,1.062,3.902c0,2.302-0.832,4.098-2.495,5.387s-3.922,1.934-6.776,1.934h-9.444V17.472z M85.224,27.468
	h3.108c1.45,0,2.5-0.225,3.15-0.673c0.65-0.449,0.976-1.191,0.976-2.228c0-0.967-0.354-1.66-1.062-2.08
	c-0.708-0.42-1.828-0.63-3.358-0.63h-2.814V27.468z M85.224,31.715v6.578h3.487c1.473,0,2.561-0.282,3.263-0.846
	s1.053-1.427,1.053-2.59c0-2.095-1.497-3.142-4.489-3.142H85.224z M151.366,17.472h7.855c3.58,0,6.178,0.509,7.795,1.528
	s2.426,2.639,2.426,4.86c0,1.508-0.354,2.745-1.062,3.712c-0.708,0.967-1.649,1.548-2.823,1.744v0.172
	c1.6,0.357,2.753,1.025,3.461,2.003c0.708,0.979,1.062,2.279,1.062,3.902c0,2.302-0.832,4.098-2.495,5.387s-3.922,1.934-6.776,1.934
	h-9.444V17.472z M156.718,27.468h3.108c1.45,0,2.5-0.225,3.15-0.673c0.65-0.449,0.976-1.191,0.976-2.228
	c0-0.967-0.354-1.66-1.062-2.08c-0.708-0.42-1.828-0.63-3.358-0.63h-2.814V27.468z M156.718,31.715v6.578h3.487
	c1.473,0,2.561-0.282,3.263-0.846s1.053-1.427,1.053-2.59c0-2.095-1.497-3.142-4.489-3.142H156.718z M262.154,35.703
	c0,2.279-0.82,4.075-2.46,5.387c-1.641,1.313-3.922,1.968-6.846,1.968c-2.693,0-5.076-0.506-7.147-1.519v-4.973
	c1.703,0.76,3.145,1.295,4.324,1.606c1.18,0.311,2.259,0.466,3.237,0.466c1.175,0,2.075-0.224,2.702-0.673
	c0.627-0.449,0.941-1.116,0.941-2.002c0-0.495-0.139-0.935-0.415-1.321s-0.682-0.757-1.217-1.114
	c-0.535-0.356-1.626-0.926-3.271-1.709c-1.543-0.725-2.699-1.421-3.471-2.089s-1.387-1.444-1.847-2.331
	c-0.461-0.886-0.691-1.922-0.691-3.107c0-2.233,0.757-3.988,2.271-5.266c1.514-1.277,3.605-1.916,6.276-1.916
	c1.312,0,2.563,0.155,3.755,0.466c1.191,0.311,2.437,0.749,3.737,1.312l-1.727,4.161c-1.347-0.553-2.46-0.938-3.34-1.157
	c-0.881-0.219-1.747-0.328-2.599-0.328c-1.013,0-1.79,0.236-2.331,0.708s-0.812,1.087-0.812,1.847c0,0.472,0.109,0.883,0.328,1.234
	s0.566,0.69,1.045,1.019c0.478,0.328,1.608,0.918,3.393,1.77c2.359,1.128,3.977,2.259,4.851,3.392
	C261.717,32.668,262.154,34.058,262.154,35.703z M336.858,17.472v16.333c0,1.865-0.417,3.499-1.252,4.903
	c-0.834,1.404-2.04,2.48-3.616,3.229c-1.577,0.748-3.442,1.122-5.594,1.122c-3.246,0-5.767-0.832-7.563-2.495
	s-2.693-3.939-2.693-6.828V17.472h5.335v15.452c0,1.945,0.392,3.373,1.174,4.282c0.783,0.909,2.078,1.364,3.885,1.364
	c1.749,0,3.019-0.458,3.807-1.373s1.183-2.351,1.183-4.308V17.472H336.858z"/>
<path fill="#2E3192" d="M119.081,42.713l-1.83-6.008h-9.202l-1.83,6.008h-5.767l8.909-25.345h6.543l8.943,25.345H119.081z
	 M115.973,32.216c-1.692-5.444-2.645-8.523-2.857-9.237c-0.213-0.713-0.365-1.277-0.458-1.692c-0.38,1.474-1.467,5.116-3.263,10.929
	H115.973z M190.574,42.713l-1.83-6.008h-9.202l-1.83,6.008h-5.767l8.909-25.345h6.543l8.943,25.345H190.574z M187.466,32.216
	c-1.692-5.444-2.645-8.523-2.857-9.237c-0.213-0.713-0.365-1.277-0.458-1.692c-0.38,1.474-1.467,5.116-3.263,10.929H187.466z
	 M238.312,42.713l-1.83-6.008h-9.202l-1.83,6.008h-5.767l8.909-25.345h6.543l8.943,25.345H238.312z M235.204,32.216
	c-1.692-5.444-2.645-8.523-2.857-9.237c-0.213-0.713-0.365-1.277-0.458-1.692c-0.38,1.474-1.467,5.116-3.263,10.929H235.204z
	 M277.451,21.563c-2.015,0-3.574,0.757-4.679,2.271c-1.105,1.514-1.658,3.623-1.658,6.327c0,5.628,2.112,8.443,6.337,8.443
	c1.772,0,3.919-0.443,6.439-1.33v4.489c-2.071,0.863-4.385,1.295-6.94,1.295c-3.672,0-6.48-1.113-8.425-3.341
	c-1.945-2.227-2.918-5.424-2.918-9.59c0-2.625,0.478-4.923,1.433-6.897c0.955-1.974,2.328-3.487,4.118-4.541
	c1.789-1.053,3.887-1.58,6.293-1.58c2.451,0,4.914,0.593,7.389,1.778l-1.726,4.351c-0.944-0.449-1.894-0.84-2.85-1.174
	C279.31,21.73,278.372,21.563,277.451,21.563z M343.04,42.713V17.472h5.353v20.821h10.237v4.42H343.04z"/>
<path fill="#009245" d="M133.375,33.027v9.686h-5.352V17.472h7.355c3.43,0,5.967,0.625,7.614,1.873
	c1.646,1.249,2.469,3.146,2.469,5.689c0,1.485-0.409,2.806-1.226,3.962s-1.974,2.063-3.47,2.719
	c3.798,5.674,6.273,9.34,7.424,10.998h-5.939l-6.025-9.686H133.375z M133.375,28.677h1.727c1.692,0,2.94-0.282,3.747-0.846
	c0.805-0.564,1.208-1.45,1.208-2.659c0-1.197-0.412-2.049-1.234-2.555c-0.823-0.506-2.098-0.76-3.824-0.76h-1.623V28.677z
	 M204.87,33.027v9.686h-5.352V17.472h7.355c3.43,0,5.967,0.625,7.614,1.873c1.646,1.249,2.469,3.146,2.469,5.689
	c0,1.485-0.409,2.806-1.226,3.962s-1.974,2.063-3.47,2.719c3.798,5.674,6.273,9.34,7.424,10.998h-5.939l-6.025-9.686H204.87z
	 M204.87,28.677h1.727c1.692,0,2.94-0.282,3.747-0.846c0.805-0.564,1.208-1.45,1.208-2.659c0-1.197-0.412-2.049-1.234-2.555
	c-0.823-0.506-2.098-0.76-3.824-0.76h-1.623V28.677z M309.943,42.713h-5.335V31.819h-9.996v10.894h-5.353V17.472h5.353v9.893h9.996
	v-9.893h5.335V42.713z M377.553,42.713h-14.537V17.472h14.537v4.385h-9.185v5.542h8.546v4.385h-8.546v6.509h9.185V42.713z"/>
</svg>
