<?xml version="1.0" encoding="utf-8"?>
<!-- Generator: Adobe Illustrator 16.0.0, SVG Export Plug-In . SVG Version: 6.00 Build 0)  -->
<!DOCTYPE svg PUBLIC "-//W3C//DTD SVG 1.1//EN" "http://www.w3.org/Graphics/SVG/1.1/DTD/svg11.dtd">
<svg version="1.1" id="Ebene_1" xmlns="http://www.w3.org/2000/svg" xmlns:xlink="http://www.w3.org/1999/xlink" x="0px" y="0px"
	 width="50px" height="50px" viewBox="60 -37.5 50 50" enable-background="new 60 -37.5 50 50" xml:space="preserve">
<rect x="60" y="-37.5" fill="#2E3192" width="50" height="50"/>
<polygon fill="#FFFFFF" points="72.291,-10.333 85,-30.667 97.709,-10.333 "/>
<g>
	<path fill="#FFFFFF" d="M65.573,1.199c0-0.45-0.009-0.819-0.036-1.18h0.702l0.045,0.72h0.019c0.216-0.414,0.72-0.819,1.44-0.819
		c0.603,0,1.539,0.36,1.539,1.855v2.602H68.49V1.865c0-0.702-0.261-1.288-1.009-1.288c-0.521,0-0.927,0.369-1.062,0.811
		c-0.036,0.099-0.055,0.234-0.055,0.369v2.62h-0.792V1.199z"/>
	<path fill="#FFFFFF" d="M72.981,4.377l-0.063-0.549h-0.027c-0.243,0.342-0.711,0.648-1.332,0.648c-0.882,0-1.332-0.621-1.332-1.251
		c0-1.053,0.936-1.629,2.619-1.621v-0.09c0-0.36-0.099-1.008-0.99-1.008c-0.405,0-0.828,0.126-1.134,0.324l-0.181-0.522
		c0.36-0.234,0.883-0.387,1.432-0.387c1.332,0,1.656,0.91,1.656,1.783v1.629c0,0.378,0.019,0.748,0.072,1.044H72.981z M72.864,2.153
		C72,2.135,71.019,2.288,71.019,3.135c0,0.513,0.342,0.756,0.747,0.756c0.567,0,0.928-0.36,1.054-0.729
		c0.026-0.081,0.045-0.171,0.045-0.252V2.153z"/>
	<path fill="#FFFFFF" d="M78.012,4.215c-0.207,0.108-0.666,0.252-1.251,0.252c-1.314,0-2.17-0.891-2.17-2.224
		c0-1.341,0.919-2.313,2.341-2.313c0.469,0,0.883,0.117,1.099,0.225l-0.18,0.612c-0.189-0.108-0.486-0.208-0.919-0.208
		c-0.999,0-1.539,0.738-1.539,1.648c0,1.008,0.648,1.629,1.513,1.629c0.449,0,0.747-0.117,0.972-0.216L78.012,4.215z"/>
	<path fill="#FFFFFF" d="M78.938-2.015h0.792v2.719h0.019c0.126-0.225,0.324-0.423,0.566-0.559c0.234-0.135,0.514-0.225,0.811-0.225
		c0.585,0,1.521,0.36,1.521,1.864v2.593h-0.792V1.874c0-0.702-0.261-1.296-1.009-1.296c-0.513,0-0.918,0.36-1.062,0.792
		c-0.046,0.108-0.055,0.225-0.055,0.378v2.629h-0.792V-2.015z"/>
	<path fill="#FFFFFF" d="M89.785,2.162c0,1.612-1.116,2.314-2.17,2.314c-1.18,0-2.089-0.864-2.089-2.242
		c0-1.458,0.955-2.314,2.161-2.314C88.938-0.08,89.785,0.83,89.785,2.162z M86.328,2.208c0,0.954,0.549,1.674,1.323,1.674
		c0.756,0,1.323-0.711,1.323-1.692c0-0.738-0.369-1.675-1.306-1.675C86.733,0.515,86.328,1.379,86.328,2.208z"/>
	<path fill="#FFFFFF" d="M90.747,4.377c0.019-0.297,0.036-0.738,0.036-1.125v-5.267h0.783v2.737h0.018
		c0.279-0.486,0.783-0.801,1.486-0.801c1.08,0,1.845,0.9,1.836,2.224c0,1.557-0.981,2.332-1.953,2.332
		c-0.631,0-1.135-0.243-1.459-0.819h-0.026l-0.036,0.72H90.747z M91.566,2.63c0,0.099,0.018,0.198,0.036,0.288
		c0.153,0.549,0.612,0.927,1.188,0.927c0.828,0,1.323-0.675,1.323-1.674c0-0.874-0.45-1.621-1.297-1.621
		c-0.54,0-1.044,0.369-1.206,0.972c-0.018,0.09-0.045,0.198-0.045,0.324V2.63z"/>
	<path fill="#FFFFFF" d="M96.346,2.342c0.018,1.071,0.702,1.513,1.494,1.513c0.567,0,0.909-0.099,1.206-0.225l0.136,0.567
		c-0.279,0.126-0.757,0.27-1.45,0.27c-1.341,0-2.143-0.882-2.143-2.196s0.774-2.35,2.044-2.35c1.423,0,1.801,1.251,1.801,2.053
		c0,0.162-0.019,0.288-0.027,0.369H96.346z M98.668,1.775c0.009-0.504-0.207-1.288-1.099-1.288c-0.801,0-1.152,0.738-1.215,1.288
		H98.668z"/>
	<path fill="#FFFFFF" d="M100.413,1.199c0-0.45-0.009-0.819-0.036-1.18h0.702l0.045,0.72h0.019c0.216-0.414,0.72-0.819,1.44-0.819
		c0.603,0,1.539,0.36,1.539,1.855v2.602h-0.792V1.865c0-0.702-0.261-1.288-1.009-1.288c-0.521,0-0.927,0.369-1.062,0.811
		c-0.036,0.099-0.055,0.234-0.055,0.369v2.62h-0.792V1.199z"/>
</g>
</svg>
